<svg width="210" height="30" viewBox="0 0 210 30" fill="none" xmlns="http://www.w3.org/2000/svg">
<path d="M41.5137 21H51.5723C53.1413 21 54.4303 20.6452 55.4395 19.9355C56.4486 19.2259 56.9531 18.2038 56.9531 16.8691C56.9531 15.8926 56.6797 15.1211 56.1328 14.5547C55.5924 13.9883 54.8438 13.653 53.8867 13.5488V13.5098C54.5638 13.2884 55.1042 12.9141 55.5078 12.3867C55.918 11.8594 56.123 11.1921 56.123 10.3848C56.123 9.31055 55.7422 8.44141 54.9805 7.77734C54.2253 7.11328 53.0404 6.78125 51.4258 6.78125H41.5137V21ZM46.4062 17.8164V15.1016H50.0488C50.498 15.1016 50.9017 15.2025 51.2598 15.4043C51.6243 15.5996 51.8066 15.9089 51.8066 16.332C51.8066 16.8659 51.6243 17.2467 51.2598 17.4746C50.9017 17.7025 50.498 17.8164 50.0488 17.8164H46.4062ZM46.4062 12.7285V10.1602H49.9707C50.3809 10.1602 50.7129 10.2676 50.9668 10.4824C51.2272 10.6908 51.3574 11.0033 51.3574 11.4199C51.3574 11.8366 51.2272 12.1589 50.9668 12.3867C50.7129 12.6146 50.3809 12.7285 49.9707 12.7285H46.4062ZM58.7012 21H71.5039V17.0156H63.7598V6.78125H58.7012V21ZM73.0078 21H78.1543V6.78125H73.0078V21ZM81.1426 21H85.4199L85.3906 13.2363C85.3906 13.2038 85.3906 13.1647 85.3906 13.1191C85.3906 13.0736 85.3906 13.0182 85.3906 12.9531H85.4199C85.4655 13.0378 85.5046 13.1029 85.5371 13.1484C85.5697 13.1875 85.6217 13.2526 85.6934 13.3438L91.8164 21H96.5527V6.78125H92.2949V13.9199C92.2949 14.0632 92.2949 14.1738 92.2949 14.252C92.2949 14.3301 92.2949 14.4408 92.2949 14.584H92.2559C92.2168 14.5254 92.1842 14.4831 92.1582 14.457C92.1387 14.4245 92.0931 14.3659 92.0215 14.2812L86.0352 6.78125H81.1426V21ZM99.5801 21H104.639V16.4785L117.383 6.78125H110.996L104.639 11.6641V6.78125H99.5801V21ZM111.338 21H117.949L108.213 11.4883L104.541 14.252L111.338 21ZM117.842 17.2402C117.926 18.6139 118.701 19.6328 120.166 20.2969C121.637 20.9609 123.711 21.293 126.387 21.293C129.049 21.293 131.064 20.8633 132.432 20.0039C133.799 19.1445 134.482 17.9206 134.482 16.332C134.482 14.8477 133.942 13.8255 132.861 13.2656C131.787 12.6992 130.075 12.2695 127.725 11.9766C125.368 11.7031 123.971 11.4883 123.535 11.332C123.099 11.1758 122.881 10.9772 122.881 10.7363C122.881 10.4564 123.092 10.235 123.516 10.0723C123.939 9.90299 124.704 9.81836 125.811 9.81836C127.204 9.81836 128.125 9.9388 128.574 10.1797C129.023 10.4141 129.284 10.6973 129.355 11.0293L129.414 11.2637H133.867L133.828 10.6973C133.717 9.23893 132.992 8.17448 131.65 7.50391C130.316 6.82682 128.337 6.48828 125.713 6.48828C123.187 6.48828 121.276 6.89193 119.98 7.69922C118.691 8.50651 118.047 9.65234 118.047 11.1367C118.047 12.4518 118.571 13.4674 119.619 14.1836C120.674 14.8932 122.428 15.3978 124.883 15.6973C127.07 15.9512 128.415 16.1595 128.916 16.3223C129.424 16.485 129.678 16.7194 129.678 17.0254C129.678 17.3704 129.43 17.6374 128.936 17.8262C128.441 18.0085 127.552 18.0996 126.27 18.0996C124.902 18.0996 123.936 18.002 123.369 17.8066C122.809 17.6113 122.477 17.2533 122.373 16.7324L122.305 16.3809H117.793L117.842 17.2402ZM134.951 10.7266H140.586V21H145.732V10.7266H151.357V6.78125H134.951V10.7266ZM151.777 13.8516C151.777 16.3711 152.738 18.2428 154.658 19.4668C156.579 20.6842 158.942 21.293 161.748 21.293C164.554 21.293 166.921 20.6842 168.848 19.4668C170.775 18.2428 171.738 16.3711 171.738 13.8516V13.7344C171.738 11.3125 170.775 9.49935 168.848 8.29492C166.921 7.09049 164.554 6.48828 161.748 6.48828C158.942 6.48828 156.579 7.09049 154.658 8.29492C152.738 9.49935 151.777 11.3125 151.777 13.7344V13.8516ZM157.09 13.9004V13.7246C157.09 12.4551 157.51 11.498 158.35 10.8535C159.189 10.2025 160.329 9.88997 161.768 9.91602C163.187 9.94206 164.32 10.2676 165.166 10.8926C166.012 11.5111 166.436 12.4583 166.436 13.7344V13.9297C166.436 15.2839 166.012 16.306 165.166 16.9961C164.32 17.6797 163.187 18.0085 161.768 17.9824C160.335 17.9564 159.196 17.6146 158.35 16.957C157.51 16.293 157.09 15.2741 157.09 13.9004ZM173.584 21H178.643V16.6152H184.492C186.139 16.6152 187.409 16.1758 188.301 15.2969C189.199 14.4115 189.648 13.1647 189.648 11.5566C189.648 10.0332 189.209 8.85807 188.33 8.03125C187.458 7.19792 186.201 6.78125 184.561 6.78125H173.584V21ZM178.643 13.5098V10.2285H183.174C183.61 10.2285 183.942 10.375 184.17 10.668C184.398 10.9609 184.512 11.3711 184.512 11.8984C184.512 12.3997 184.398 12.7936 184.17 13.0801C183.949 13.3665 183.617 13.5098 183.174 13.5098H178.643ZM185.215 21H190.723L186.172 14.1738L181.738 15.1504L185.215 21ZM192.314 21H206.514V17.3379H197.021V15.5117H205.547V12.2793H197.021V10.5996H206.338V6.78125H192.314V21Z" fill="#FF5955"/>
<rect x="3" y="7" width="9" height="4" fill="#FF5955"/>
<rect x="20" y="6" width="6" height="6" fill="#FF5955"/>
<rect x="5" y="19" width="18" height="4" fill="#FF5955"/>
<rect x="5" y="15" width="4" height="8" fill="#FF5955"/>
</svg>
